<?xml version="1.0" encoding="utf-8"?>
<!-- Generator: Adobe Illustrator 17.1.0, SVG Export Plug-In . SVG Version: 6.00 Build 0)  -->
<!DOCTYPE svg PUBLIC "-//W3C//DTD SVG 1.1//EN" "http://www.w3.org/Graphics/SVG/1.1/DTD/svg11.dtd">
<svg version="1.1" id="Layer_1" xmlns="http://www.w3.org/2000/svg" xmlns:xlink="http://www.w3.org/1999/xlink" x="0px" y="0px"
	 viewBox="0 469 500 500" enable-background="new 0 469 500 500" xml:space="preserve">
<g>
	<title>Layer 1</title>
	<g id="layer1">
	</g>
	<g id="g4211" transform="matrix(2.99416 0 0 2.99416 -645.695 -294.187)">
		<path id="path1086" fill="#214B63" d="M292.2,420.4c-5.2-0.7-11.4-1.8-11.8-2.3c-0.2-0.2,0.7-0.9,1.9-1c3-0.6,3-0.6,7.4,0
			c2.6,0.3,4,0.2,4.3-0.2c0.3-0.6,1.3-0.4,3.2,0.3c2.4,1,4.3,1,7.4,0.2c0.7-0.1,1,0.1,0.9,0.7c-0.1,0.7,0.1,0.9,1,0.4
			c0.7-0.2,2.1-0.4,3.3-0.4l2.1,0.1l-1.7-1.2l-1.7-1.2l1.6-0.6c1-0.3,1.9-0.2,2.6,0.2c1.2,1,9.8,0.2,13.1-1.1c1.3-0.6,3.4-1,4.7-1
			c1.2,0,3-0.4,3.9-1c1.9-1.1,3.4-1.3,3.4-0.4c0,0.7-6.8,3.7-12.8,5.6C317.1,420.2,302.2,421.5,292.2,420.4z M310.6,409.4
			c-2.4-1-3.9-3.4-2.8-4.9c0.4-0.7,0.4-0.9-0.2-0.9c-0.7,0-0.7-0.1-0.1-0.6c0.4-0.2,1-2.1,1.2-3.9c0.2-1.9,0.9-4.9,1.3-6.5
			c0.4-1.8,0.9-3.8,0.9-4.4c0-1.4,0.7-6.1,1.3-9.9c0.6-3-0.9-5.4-4-7.1c-1.4-0.9-2.8-1.9-3-2.6c-1-3.2-3.3-8-5.3-10.6
			c-1.9-2.7-0.7-8.2,2.4-11c1.9-1.7,2.1-2.3,2-4.6c-0.1-1.3-0.4-2.7-0.9-2.9c-0.2-0.2-0.6-0.7-0.7-1c-0.1-0.3-0.4-0.7-0.9-0.7
			c-0.4,0-0.9,0.4-0.7,0.9c0.2,1.1-3.9,0.3-5.2-1c-0.4-0.4-1.2-0.9-1.6-0.9s-0.7-0.4-0.7-0.9c0-1.4-2.9-3.8-5.5-4.3
			c-1.3-0.2-3.1-1.1-3.9-1.9c-1-0.9-2.7-1.4-5-1.6c-3.6-0.2-7.2-1.9-6.5-3.1c0.2-0.3-0.6-0.7-1.7-0.7c-2.6,0-3.3-1.2-1.8-2.4
			c0.7-0.6,1-0.9,0.6-0.9c-0.7,0.1-3.3-2.6-5.2-5.3c-0.2-0.3-1.4-1.8-2.6-3.1l-2.1-2.4l1.1,2.2c0.7,1.2,1.3,2.3,1.8,2.3
			c0.3,0,0.4,0.4,0.2,1c-0.2,0.6-0.1,1.2,0.3,1.4c0.4,0.2,0.9,1,0.9,1.6c0,1-0.2,1-1.3-0.1c-0.9-0.7-1.3-1.7-1.3-2.2
			c0-0.6-0.4-1.1-1-1.3c-0.7-0.2-0.9-0.9-0.7-1.7c0.2-0.7,0.1-1.4-0.3-1.7c-0.4-0.3-0.7-1-0.7-1.7s-0.9-2.1-1.7-3
			c-2.6-2.8-3.2-7.2-1.8-10.9c1.3-3.4,1.7-6.1,0.7-6.1c-0.4,0-0.6-0.7-0.2-1.7c0.2-0.9,0.1-1.9-0.3-2.1c-0.4-0.2-0.9,0-0.9,0.7
			c0,0.7-0.3,1.1-0.7,1.1c-0.4,0-0.7-0.7-0.6-1.6c0.2-3-0.1-3.9-1.3-3.9c-1.6,0-6.4,2.4-7.2,3.6c-0.2,0.4-0.9,0.9-1.1,0.9
			s-2,1-3.8,2.2c-1.8,1.2-3.3,2-3.6,1.8c-0.2-0.2,0.7-1.1,1.8-1.9c1.2-0.9,2.3-2.1,2.4-2.8c0.1-0.9,1.3-2.3,2.8-3.6
			c1.3-1.2,1.9-2.1,1.2-1.8c-2,0.7-1-1.3,1.1-2.3c1-0.4,1.9-1.6,2.2-2.4c0.6-2.1,5.3-5.3,7.8-5.3c1.1,0,3.8-0.4,6.1-0.9
			c2.3-0.4,5.3-0.9,6.7-0.7c2.1,0.1,2.6-0.1,2.4-1.1c-0.1-1-0.3-1.1-1.3-0.4c-0.7,0.4-1.4,0.6-1.7,0.2c-0.7-0.7,1-2.6,2.3-2.6
			c0.7,0,0.9-0.4,0.7-1c-0.2-0.7,0.4-1.3,2.1-2.1c1.3-0.7,1.9-1,1.2-0.9c-1.8,0.4-5.9,1.9-7.3,2.7c-0.7,0.3-1.8,0.7-2.7,0.7
			c-0.9,0-1.3,0.2-1.3,0.7c0,0.7-4.9,2.6-8.3,3.3c-1.6,0.3-1.3,0.1,0.7-1.2c7.3-5.1,14-7.9,24.3-10.3c5.2-1.2,8.4-1.6,18.7-1.6
			c12.2,0,21.6,1.1,19.6,2.3c-0.4,0.3-1.2,0.4-1.6,0.2c-0.4-0.2-3.8-0.4-7.8-0.6c-6-0.2-7.1-0.1-6.8,0.9c0.2,0.6,0.9,0.9,1.2,0.7
			c1.2-0.4,6.8,2.4,10.3,5.3c1.7,1.3,3.2,2.4,3.6,2.4c0.3,0,1,0.7,1.4,1.4c0.9,1.2,0.9,1.4-0.4,1.8c-1.8,0.4-2.3,3.2-1.1,6.4
			c0.4,1.4,0.9,2.8,0.6,2.9c-0.7,0.7-4.7-1.9-7.3-4.4c-1.4-1.4-3-2.4-3.3-2.2c-0.4,0.2-0.6,0.1-0.2-0.2c0.2-0.4,0-1.1-0.7-1.6
			c-0.6-0.4-0.9-1.3-0.7-1.8c0.2-0.6-0.1-0.9-0.7-0.9c-0.6,0-1.2-0.4-1.4-1c-0.2-0.6-0.9-1-1.1-1c-0.4,0-1.2-0.4-1.9-1
			c-0.9-0.9-1.7-0.9-3.2-0.4c-1.1,0.3-1.7,0.7-1.1,0.7c1.6,0.1,6.4,5.5,6.2,6.9c-0.1,0.7,0,1.6,0.2,1.9c0.2,0.4,0.2,1.2-0.1,1.8
			c-0.6,0.9-1,0.9-3.6-0.6c-1.7-0.9-3.4-1.6-4-1.6c-1.6,0-2.3-1.3-1-1.8c0.6-0.2,1.2-0.9,1.4-1.4c0.2-0.9,0.1-0.9-1-0.7
			c-1,0.3-1.3,0.1-1.3-0.9c0-0.7-0.2-1-0.4-0.9c-0.2,0.2-0.9,0.2-1.2-0.1c-0.6-0.4-0.9,0.1-0.9,1.8c0,1.6,0.4,2.7,1.2,3.1
			c0.7,0.3,1,0.9,0.9,1.2c-0.2,0.2,0.4,0.4,1.6,0.2c1.2-0.2,2.9,0.4,5,1.8c2.4,1.6,3.2,1.9,3.3,1.1c0.3-1.6,1-1.2,3.9,1.8
			c1.6,1.6,3,2.7,3.3,2.6c0.9-0.2,2.6,1.4,4.1,3.9c1.2,1.8,2.8,2.6,2,0.9c-0.2-0.4,0.2-0.1,1,0.9c0.9,0.9,1.4,2.1,1.4,2.8
			c0,1-0.1,1-0.7,0.1c-0.7-0.9-0.7-0.9-0.9,0c-0.1,0.7-0.2,0.9-0.4,0.1c-0.6-1.3-3.6-1.1-3.4,0.3c0.1,0.9-0.4,1.3-1.4,1.4
			c-0.9,0.1-1.6,0.6-1.6,1c0,0.4-1,0.7-2.8,0.3c-2.3-0.2-2.8-0.1-2.8,0.9c0,0.7-0.7,1.9-1.3,2.9c-0.9,1-1.3,2.1-1.3,2.7
			c0,0.9-0.2,0.9-1.2,0c-1.1-0.9-1.1-0.9,0,1c1.3,2.1,1.1,2.8-1.8,5.2c-1.9,1.7-2.6,4.4-1.2,5.3c1,0.7,2.1,3.8,1.7,4.6
			c-0.7,1-2.4-0.9-3.4-3.2c-0.7-1.6-1.6-2.3-3.1-2.7c-3.3-0.7-4.8-0.6-4.8,0.6c0,0.7-0.4,0.9-1.3,0.7c-1.6-0.4-5.7,2-7.2,4
			c-1.3,1.9-1.3,4,0.1,7c1.2,2.7,2.3,3.2,5.1,2.7c1.4-0.2,2.2-0.9,2.4-2.1c0.2-0.9,0.9-1.7,1.2-1.7c0.4,0,1.3-0.1,2-0.2
			c1.8-0.3,2.1,0.9,0.9,3.2c-0.7,1.2-1,2.3-0.7,2.6c0.2,0.2,0,0.9-0.4,1.3c-0.7,0.9-0.3,0.9,1.8,0.7c4.3-0.4,5.1,0,5.1,3
			c-0.1,5,1.6,7,4.3,5.5c0.9-0.4,1.8-0.4,2.7,0c1.8,1,1.9,1,3.3-0.7c0.7-0.9,1.9-1.6,2.7-1.7c0.7-0.1,1.9-0.4,2.7-0.9
			c0.9-0.3,1.2-0.2,0.9,0.2c-0.2,0.4-0.1,0.9,0.2,0.9c0.3,0,0.9-0.2,0.9-0.7c0-0.3,0.9-0.2,1.9,0.2c1,0.6,2.1,0.9,2.6,0.6
			c0.3-0.2,0.4-0.1,0.2,0.2c-0.2,0.4,0.2,0.9,1.1,1.1c2.1,0.6,2.7,0.6,2.3-0.2c-0.2-0.3,0-0.9,0.4-1.2c0.4-0.3,0.7-0.2,0.3,0.2
			c-0.4,0.9,0.4,1.1,2.9,1c0.4,0,0.9,0.4,0.9,1.1c0,1.6,4.7,5.3,7.3,5.7c2.7,0.6,5,2.4,5,4c0,0.7,0.3,1.3,0.9,1.7
			c0.4,0.2,0.2,1-0.4,1.9c-0.7,0.9-0.9,1.1-0.2,0.7c0.9-0.7,1.8-0.4,5.3,1.6c2.4,1.3,5,2.4,5.6,2.4c0.7,0,1.8,0.7,2.4,1.3
			c0.7,0.9,1.7,1.2,2.2,1c0.7-0.2,1,0.2,1,1.8c0,1.4-0.9,3.2-3,5.6c-1.7,2-3.3,4.6-3.6,5.7c-0.7,3.2-3.8,7.2-6.3,8.1
			c-1.2,0.4-2.2,1.2-2.2,1.8s-0.9,1.6-1.9,2.2c-1.1,0.7-2.4,1.9-3.2,2.8c-3.3,4.1-7.1,7.1-8.7,6.9c-1.2-0.2-1.6,0-1.3,0.9
			c0.2,1.2-1.2,3.4-2.3,3.4c-0.3,0-2.3,1.4-4.4,3.2c-2.4,2.1-3.4,3.3-2.9,3.8c0.6,0.4,0.3,1-0.9,1.9c-1.6,1.3-1.6,1.6-0.4,2.3
			c0.7,0.4,1.2,1.1,1.2,1.3C315.3,410.1,312.5,410.2,310.6,409.4z M307.6,291c-0.4-0.2-1.1-0.2-1.3,0.1c-0.2,0.2,0.2,0.4,0.9,0.3
			C308.1,291.3,308.2,291.2,307.6,291z M312.4,287.9c0-0.2-0.4-0.3-1-0.1c-0.7,0.2-1,0-1-0.6c0-0.9-0.1-0.9-0.7,0.1
			c-0.3,0.7-0.3,1.7,0.1,2.7l0.9,1.7l0.9-1.6C312.1,289,312.4,288.1,312.4,287.9z M290.4,289.8c0-0.1-0.7-0.7-1.6-1.3
			c-1.4-0.9-1.8-0.9-3,0.1c-1.3,1.1-1.3,1.2,1.6,1.3C289.1,290,290.4,289.9,290.4,289.8z M288.8,286.2c-1.2-0.9-1.2-1-0.1-1.4
			c0.7-0.2,2.4-0.1,3.9,0.2c2.2,0.6,2.6,0.6,2.2-0.3c-0.2-0.7-0.1-0.9,0.4-0.6c0.4,0.2,1.3,0.2,2-0.2c1.1-0.7,1.1-0.7-0.2-0.9
			c-1.1,0-1.4-0.4-1.4-1.9c0-1-0.6-2.3-1.3-2.8c-0.7-0.6-1.2-1.1-1.1-1.2c0.4-0.9,0.1-1.8-0.9-1.8c-0.6,0-1-0.3-1-0.9
			c0-0.4-0.4-0.7-0.9-0.4c-0.4,0.1-1.3,0-2.1-0.3c-1-0.4-1.6-0.1-3,1.4c-1,1.2-2,1.9-2.3,1.8s-0.9,0.1-1,0.7c-0.2,0.6-0.1,1,0.1,0.9
			s1.3,0.7,2.4,1.8c1.2,1.2,2.3,1.8,3,1.6c1.4-0.6,3.8,0.2,3.3,1c-0.2,0.3-0.9,0.7-1.4,0.7c-0.6,0-0.9-0.3-0.6-0.9
			c0.2-0.4,0.2-0.7-0.3-0.2c-0.4,0.2-0.7,0.9-0.4,1.2c0.2,0.3,0.1,0.7-0.3,0.7s-0.9-0.3-0.9-0.7c0-1.2-2.6-0.9-2.9,0.6
			c-0.3,1.4,1.2,3.3,1.9,2.2c0.2-0.4,0.7-0.4,1.3,0c0.4,0.4,1,0.4,1.3,0.2c0.2-0.2,0.4-0.1,0.4,0.4c0,0.4,0.2,0.7,0.4,0.4
			C289.8,287.3,289.5,286.8,288.8,286.2z M293.9,282.6c0-0.3,0.2-0.9,0.7-1.1c0.5-0.3,0.4,0.1,0.2,0.7
			C294.4,283.3,293.9,283.6,293.9,282.6z M285.2,280.9c-0.9-0.6-1-1-0.6-1c1.3-0.1,3,0.9,3,1.4C287.6,282.1,286.8,281.9,285.2,280.9
			z M308.3,287.6c0-0.1-0.7-0.4-1.3-0.9c-1-0.4-1.6-0.4-2,0.1c-0.6,0.7-0.2,0.9,1.3,0.9C307.4,287.7,308.3,287.6,308.3,287.6z
			 M298,285.9c0-0.4-0.4-0.7-1.1-0.7s-0.9,0.2-0.7,0.7c0.2,0.3,0.7,0.7,1.1,0.7C297.8,286.6,298,286.3,298,285.9z M300.4,285.9
			c-0.2-0.4-0.6-0.7-0.9-0.7c-0.1,0-0.2,0.2-0.2,0.7c0,0.3,0.3,0.7,0.9,0.7C300.6,286.6,300.6,286.3,300.4,285.9z M278,282.4
			c-0.9-0.6-0.9-1,0.9-2.3c1-0.9,1.9-2.1,1.9-2.6c0-0.5-0.4-0.2-1,0.4c-0.6,0.9-1.2,1.1-1.6,0.9c-0.4-0.2-0.1-0.4,0.2-0.4
			c0.4,0,0.9-0.4,0.9-1c0-1.3-1.3-1.3-1.8,0c-0.2,0.6-0.7,0.9-1,0.7c-0.3-0.2-0.4-0.7-0.2-1c0.2-0.3,0.1-0.7-0.2-0.7
			c-0.4,0-0.9,0.3-1.1,0.7c-0.2,0.4-0.9,0.4-1.2,0.2c-0.4-0.2-0.4-0.7,0.2-1c0.9-0.4,0.9-0.7-0.1-0.6c-1.3,0-4.9,2-3.6,2
			c0.4,0,0.9,0.2,0.4,0.7c-0.2,0.3,0.3,0.4,1.2,0.2l1.6-0.3l-1.6,1l-1.6,1l1.9,0.9c1.3,0.7,2,0.7,2.2,0.1c0.2-0.6,0.6-0.6,1.2,0.1
			c0.9,0.7,0.9,1,0.1,1.3c-0.6,0.3-0.2,0.6,1.2,0.6C278.5,283.1,278.8,283,278,282.4z M275.4,280c-1-1-0.3-1.2,1.1-0.3
			c0.4,0.3,0.7,0.9,0.3,1C276.5,280.9,275.9,280.6,275.4,280z M302.4,279.9c-0.4-0.4-1.8,0.7-1.8,1.3c0,0.3,0.4,0.2,1-0.2
			C302.3,280.4,302.6,280,302.4,279.9z M282.9,280.9c0-0.1-0.4-0.4-1.1-0.7c-0.6-0.3-0.9-0.1-0.7,0.2
			C281.5,281.1,282.9,281.4,282.9,280.9z M272.3,273.8c0.7-0.6,0.2-0.7-1.2-0.7c-1.1,0-2.7,0.7-3.2,1.3c-1.2,1.3-1.2,1.3,0.2,0.1
			c1.6-1.3,2.8-0.6,1.9,1.1c-0.2,0.4,0,0.4,0.4-0.1C271.1,275,272,274.3,272.3,273.8z M278,274.9c0-0.4-0.3-0.6-0.7-0.2
			c-0.3,0.2-0.7,0.6-0.7,0.9c0,0.1,0.3,0.2,0.7,0.2C277.7,275.7,278,275.3,278,274.9z M274.3,269.6c-0.7-0.2-1.6-0.1-2.1,0
			c-0.4,0.2,0.1,0.3,1.2,0.3C274.7,269.9,275.2,269.8,274.3,269.6z M279.8,268.8c-0.2-0.2-0.9,0-1.2,0.4c-0.7,0.7-0.7,0.9,0.4,0.4
			C279.5,269.6,280,269,279.8,268.8z M287.6,268c0-0.3-0.2-0.7-0.6-0.7c-0.4,0-0.6,0.4-0.6,1s0.2,0.9,0.6,0.7
			C287.4,268.7,287.6,268.4,287.6,268z M284.8,266.6c-0.4-0.9-0.4-1.8-0.2-2.2c0.3-0.6,0.1-0.4-0.7,0.1c-1.1,0.9-1.1,1,0,2.2
			C285.4,268.4,285.9,268.4,284.8,266.6z M281.4,267.1c-0.1-0.1-1.2-0.4-2.3-0.7c-1.6-0.3-1.8-0.2-1,0.2
			C278.9,267.2,282.1,267.8,281.4,267.1z M275.3,265.1c0.9-0.7,0.9-0.7,0-0.4c-0.6,0.1-1.7,0-2.4-0.4c-1.2-0.7-1.3-0.7-0.4,0.4
			C273.5,266.2,273.8,266.2,275.3,265.1z M278.8,264.3c0-0.7-0.4-0.9-1.1-0.7c-0.9,0.3-0.9,0.6-0.1,1
			C278.7,265.5,278.8,265.5,278.8,264.3z M297,263.8c2.7,0-0.1-1.6-3-1.7c-1.8-0.1-3.2-0.7-3.8-1.3c-1.2-1.7-1.8-1.4-1.8,0.9
			c0,1.7,0.2,1.9,1.3,1.7c0.9-0.2,2.1,0.1,2.9,0.9c1,0.9,1.8,0.9,2.3,0.4C295.2,264.2,296.1,263.8,297,263.8z M281.4,263.8
			c0-0.4-0.3-0.7-0.9-0.7c-0.4,0-0.6,0.2-0.2,0.7c0.2,0.3,0.6,0.7,0.9,0.7S281.4,264.3,281.4,263.8z M300.2,257.3
			c-0.4-0.2-1.1-0.2-1.3,0.1c-0.2,0.2,0.2,0.4,0.9,0.3C300.6,257.7,300.7,257.6,300.2,257.3z M318.5,408c-0.9-0.9,0.2-1.7,1.8-1.7
			c1.2,0,1.3,0.1,0.6,1C319.7,408.6,319.1,408.7,318.5,408z M244.6,391.3c-1.9-2.2-3.6-3.9-3.8-3.8c-0.1,0.1-1-0.9-1.9-1.9
			c-1.7-2.3-4-3.9-5.5-3.9c-0.4,0-0.7,0.2-0.4,0.7c0.2,0.4-0.4,0.3-1.7-0.1c-1.6-0.6-2.6-1.8-4.3-5.3c-3.6-7.3-3.6-7.4-1.9-8.4
			c0.9-0.4,1.2-1.2,1-1.8c-0.2-0.6-0.1-1,0.2-1s0.7-0.4,0.7-1.1s0.4-1,1.6-0.9c1.1,0.1,1.6-0.1,1.6-1c0-0.7,0.2-1.3,0.6-1.7
			c0.3-0.2,0.4-0.1,0.4,0.2s1,1,2.1,1.2c1.1,0.2,2.1,0.9,2.1,1.3c0,0.5,0.9,1.3,1.9,1.8c1,0.6,2.1,1,2.3,1.2
			c0.2,0.1,0.2-0.9,0.1-2.2c-0.3-3,1-3.2,1.6-0.3c0.2,1.1,0.7,2.1,1,2.1c0.2,0,1,1.2,1.4,2.7c0.4,1.4,1.6,3.2,2.3,4
			c2.1,2.1,3.2,3.6,3.2,4c0,0.2,0.4,1,1.1,1.8c1.4,1.6,1.8,6.8,0.6,8.5c-0.6,0.9-1,1.9-1,2.7c0,0.9-0.7,1.3-1.8,1.7
			c-1.8,0.4-1.8,0.4-0.3,1.4c1.3,1,1.9,2.3,0.9,2.3C248.2,395.2,246.5,393.5,244.6,391.3z M249.9,380.6c-0.2-0.6-0.6-0.9-0.9-0.9
			c-0.2,0.2-0.1,0.7,0.1,1C250,382,250.6,381.8,249.9,380.6z M256.2,394.1c-0.4-0.7,4.9-3.6,6.5-3.6c0.9,0,0.9-0.1-0.1-0.7
			c-0.9-0.6-0.9-0.7-0.1-0.7c0.7,0,0.9-0.6,0.6-2.1c-0.2-1.2-0.1-2.1,0.2-2.1c0.3,0,0.7,0.2,0.7,0.7c0,0.3,0.7,1.3,1.4,2.1l1.4,1.4
			l-1.6,1.2c-0.9,0.7-1.8,1.2-1.9,1.2c-0.2,0-1.3,0.7-2.6,1.6C258.8,394.9,257.1,395.1,256.2,394.1z M263,377.5
			c-0.4-0.4-0.9-1.1-0.9-1.3c0-1,1-0.6,1.9,0.9C265,378.4,264.3,378.7,263,377.5z M371.4,376.7c0.2-0.9,0.9-5,1.1-9
			c0.3-4.4,1-8.3,1.8-9.5c0.9-1.7,1-2.4,0.2-5.3c-0.4-1.9-0.7-4.7-0.3-6.1c0.4-2.4,0.3-2.8-1-2.8c-0.9,0-1.4-0.4-1.4-1
			c0-1.3-1.3-1.3-3,0c-0.9,0.6-1.9,0.9-2.6,0.7c-0.7-0.2-1.8-0.1-2.6,0.3c-1.8,0.9-4.7-1.3-6.1-4.6c-0.6-1.2-1.3-2.2-1.8-2.1
			c-0.7,0.1-0.9-1.2-0.9-4.4c0-2.6,0.2-4.4,0.6-4.3c0.2,0.2,0.4-0.7,0.4-1.9c-0.1-1.2,0.4-3.3,1.2-4.7c0.9-1.3,1.3-2.9,1.3-3.4
			c0-0.6,0.3-1,0.7-1c1,0.1,4.7-2.6,4.1-3c-0.2-0.2,0.1-1,0.9-1.7c0.7-0.7,0.9-1.2,0.7-1.2c-0.1,0-0.1-0.6,0.4-1.2
			c0.9-1.1,0.9-1.1-0.2-0.2c-0.7,0.6-1.2,0.9-1.3,0.6c-0.1-0.2-0.1-0.9-0.2-1.3c-0.1-0.4-0.7-0.9-1.3-0.7c-1.2,0.2-1.2-0.1-0.9-2.4
			c0.2-1.4,0.4-3.3,0.4-4.3c-0.1-2.6,0.6-3,2.8-1.8c1.9,1,2,1,2-0.2c0-0.7-0.9-2.3-1.8-3.6c-2.1-2.8-2.1-2.8-0.6-2.3
			c1.1,0.3,1.1,0.2,0.1-0.6c-1.2-1-1.2-1.2-1.3-3.6c-0.1-1.2-0.1-1.2-0.4-0.3c-0.2,0.7-0.7,1.2-1.2,1.2c-1.2,0-1.9-2.8-0.7-3.2
			c0.4-0.2,0.9-0.9,0.6-1.3c-0.2-0.7-0.1-0.9,0.9-0.4c1,0.3,1.1,0.2,0.9-0.7c-0.2-0.9-0.2-1,0.2-0.9c0.4,0.2,0.6,0.9,0.3,1.4
			c-0.3,0.5,0.3,2.4,1.3,4c1,1.7,1.6,3.6,1.3,4.3c-0.2,0.7,0,0.6,0.4-0.2c0.7-1.2,0.6-1.9-0.9-4c-0.9-1.3-1.3-2.7-1.2-2.8
			c0.4-0.4,4.4,5.3,5,7.2c0.2,0.9,0.7,1.4,1,1.4c1,0,8.3,16.3,8.3,18.5c0,0.7-0.4,0.4-1.3-0.6c-1.2-1.3-2.8-2-2.8-1.2
			c0,0.4,2.9,5.2,3.2,5.2c0.1,0,0.1-0.4-0.2-1.1c-0.3-0.9-0.2-1,0.9-0.4c0.7,0.4,1.3,1.3,1.3,2c0.1,0.7,0.3,2.2,0.6,3.3
			c0.2,1.2,0.9,5.2,1.4,9c1.1,7.7,0.6,17.3-1.4,26.2c-0.6,2.3-1,5.3-1,6.5c0,3.8-1.3,7.4-2.8,7.9c-0.9,0.2-2.1,1.9-3,3.8
			C371.7,378.4,370.5,379.4,371.4,376.7z M375.9,310.5c-0.4-0.4-0.9-0.6-0.9-0.1c0,0.9,0.9,1.8,1.3,1.3
			C376.7,311.5,376.3,311.1,375.9,310.5z M374.1,310.5c-0.6-2.7-3-6.7-3.9-6.7c-1.2,0-3,2.9-2.6,4.1c0.1,0.4,0.9,1,1.7,1
			c3.6,0.2,4.4,0.3,4.3,0.9c-0.1,0.9,0.1,1.6,0.3,1.6C374.1,311.4,374.2,311.1,374.1,310.5z M277.3,373.7c0-0.7,0.3-1,0.9-0.9
			c1.3,0.4,1.6,1.9,0.2,1.9C277.8,374.7,277.3,374.3,277.3,373.7z M279.8,372.7c-0.2-0.4,0.1-0.7,0.7-0.7c1.2,0,1.3,0.4,0.4,1
			C280.4,373.3,280,373,279.8,372.7z M265.3,370.9c-0.6-1.6,0.2-2.2,1-0.9c0.9,1.3,0.9,2.1,0.1,2.1
			C266,371.9,265.6,371.5,265.3,370.9z M259.3,363.7c0-0.3-0.4-0.4-1-0.2c-1.2,0.4-1.3-0.7-0.1-1.7c0.7-0.6,1.1-0.2,1.7,1
			c0.4,0.9,0.4,1.7,0.1,1.7C259.7,364.6,259.3,364.3,259.3,363.7z M246,362.9c-0.9-0.4-1.8-1.3-2.3-2c-1-1.3-2.9-1.8-2.9-0.6
			c0,0.3-0.7,0.7-1.3,0.7c-0.5,0-1.3-0.3-1.3-0.7c0-0.4-0.7-0.7-1.3-0.7c-0.9,0-1.3-0.3-1.3-0.7s0.3-0.7,0.7-0.7
			c1.3,0-1-2.7-3.3-3.8c-1.6-0.9-2.2-1.4-2-2.1s0-1-0.7-1c-0.7,0-0.9,0.4-0.7,1c0.2,0.9-0.1,1-1.3,1c-1,0-1.9-0.3-2.2-0.7
			c-0.2-0.4,0.2-0.7,1-0.7s1.4-0.3,1.6-0.7c0.1-0.4,0.1-1,0.1-1.3c0.1-1,1.1-1.8,1.1-0.9c0,0.4,0.2,0.7,0.7,0.4
			c0.3-0.2,1,0.1,1.4,0.7c0.4,0.6,0.7,1,0.2,1c-0.3,0-0.2,0.3,0.2,0.9c0.7,0.7,1,0.7,1.8-0.1c0.9-0.7,1.7-0.4,4.4,0.9
			c1.9,1,3.8,2.2,4.3,2.8c0.4,0.7,1.8,1.1,2.8,1.1c1.9,0,3.8-1.4,3-2.3c-0.2-0.2-0.1-0.4,0.2-0.4c1.4,0,1.6,1.3,0.2,2.8
			c-0.9,1-1.8,1.3-2.8,1c-2.4-0.9-2.6,1.1-0.2,3.2C248.4,363,248.2,364.3,246,362.9z M254.2,360.9c-0.3-0.6-0.1-0.7,0.6-0.4
			c0.6,0.2,1.3,0.1,1.8-0.2c0.4-0.4,0.9-0.4,1.2,0.1c0.2,0.4,0.3,0.9,0.2,0.9C255.8,361.6,254.5,361.5,254.2,360.9z M223.2,358.8
			c-0.3-0.6-1.4-1.6-2.4-2.1c-2.7-1.7-3.7-3.7-2.1-4.3c0.7-0.2,1-0.2,0.7,0.1c-0.7,0.7,1.6,3.1,2.4,2.6c0.4-0.2,0.4-0.1,0.2,0.3
			c-0.2,0.4,0.2,1,1.2,1.2c1.9,0.4,2.1,0.9,1.1,2.3C223.8,359.7,223.7,359.7,223.2,358.8z M225.4,358.6c0.2-0.6,0.9-1.2,1.4-1.3
			c0.9-0.2,1-0.1,0.7,0.7c-0.2,0.7-0.4,1.2-0.4,1.3c0,0.1-0.4,0.2-1,0.2C225.4,359.7,225.1,359.3,225.4,358.6z M251.9,358.2
			c-0.9-1.8-0.1-1.8,2.1,0c1.8,1.3,1.8,1.3,0.2,1.3C253.2,359.7,252.2,358.9,251.9,358.2z M229.8,358c0-0.1,0.2-0.4,0.7-0.9
			c0.4-0.2,0.7-0.1,0.7,0.2s-0.2,0.9-0.7,0.9C230,358.2,229.8,358.1,229.8,358z M232.3,356.9c-0.2-0.4-0.3-1-0.1-1.3
			c0.7-0.7,1.3,0.2,1,1.3C232.8,357.7,232.7,357.7,232.3,356.9z M222.6,354.4c-0.2-0.2-0.4-1.9-0.6-3.7c-0.1-2.7-0.1-2.8-0.6-1.1
			c-0.2,1.1-0.7,2-1,1.9c-0.2-0.1-0.9-0.1-1.1-0.1c-1.3,0-1.4-4.7-0.1-8c1.3-3.2,1.6-3.2,1.8,0.4c0.2,2.7,1,3.6,2.8,3.2
			c1.1-0.2,1.7,0,1.7,0.7c0,0.4-0.7,1-1.6,1l-1.6,0.1l1.6,0.7c0.9,0.3,1.6,1,1.6,1.6c0,0.7-0.1,0.7-0.7-0.1c-0.3-0.4-0.9-0.7-1-0.3
			c-0.2,0.3-0.1,1.1,0.2,1.7c0.3,0.6,0.7,1.4,0.7,2.1c0,0.9-0.1,0.9-0.4,0.1c-0.2-0.7-0.4-0.7-0.9-0.1
			C223.4,354.6,222.9,354.7,222.6,354.4z M291.2,351.9c0.3-1,1.4-1.2,1.8-0.1c0.1,0.4-0.2,0.9-0.9,0.9
			C291.4,352.7,291.1,352.5,291.2,351.9z M233.3,351c0-0.9,0.1-1.1,0.3-0.9s0.2,0.9,0.1,1.3C233.4,351.9,233.3,351.8,233.3,351z
			 M216.3,347c-0.9-6.4-0.9-6.8-0.2-7.1c0.2-0.1,0.7,1.7,1,4c0.2,2.3,0.7,5,0.9,5.9c0.2,0.9,0.1,1.6-0.3,1.6
			C217.3,351.4,216.6,349.5,216.3,347z M227,351.3c-0.6-1.8-0.4-3.7,0-4.6c0.4-0.9,0.7-0.4,0.7,1.8c0,1.6-0.1,2.9-0.3,2.9
			C227.2,351.4,227,351.3,227,351.3z M258,345.4c0-0.6-0.9-1.3-1.8-1.9c-1.6-0.7-2.4-1.9-1.3-1.9c0.7,0,3.4,1.8,3.9,2.4
			c0.9,1,0.7,2.4-0.1,2.4C258.3,346.5,258,346.2,258,345.4z M223.7,341.1c-0.4-1-0.4-1.3,0-1.3c0.4,0,0.7-0.4,0.7-1.1
			c0-0.6,0.2-0.9,0.7-0.7c0.9,0.6,0.9,4.4,0,4.4C224.6,342.3,223.9,341.7,223.7,341.1z M220.3,338.8c0-0.4,0.3-1.3,0.7-1.9
			c0.6-0.9,0.7-0.9,0.7,0.4c0,0.9-0.2,1.8-0.7,1.9C220.5,339.6,220.3,339.4,220.3,338.8z M215.9,336.7c-0.2-6.9,2.1-22.8,3.6-23.2
			c0.3-0.1,0.7-0.9,0.7-1.8c0-1.9,3.2-10.1,4.4-11.3c0.9-0.9,1-0.7,1.3,0.2c0.2,0.7,0.1,1-0.3,0.7c-0.4-0.2-0.7,0-0.2,1
			c0.2,1,0,1.9-0.9,2.7c-1.4,1.3-2.8,4.4-2.8,6.3c0,1,0.1,0.9,1-0.2c0.6-0.9,1-2.2,1-3.2s0.3-1.9,0.7-1.9c1.2,0,0.7,4.8-0.9,7.8
			c-1.3,2.6-1.6,2.8-1.8,1.3c-0.1-0.9-0.4-1.6-0.9-1.6c-1.3,0-2,8.4-0.7,9.3c1.2,0.7,0.9,3.3-0.3,2.8c-1.6-0.6-2.2,1.3-2.3,6.4
			c-0.1,6.9-0.1,6.9-0.9,6.9C216.2,338.8,215.9,338,215.9,336.7z M222.4,336.6c0.2-1.1,0.1-1.6-0.4-1.3c-1.1,0.4-2.1-5.2-1-6.2
			c0.4-0.4,0.7-0.1,0.7,1.3c0,1.2,0.7,2.8,1.9,3.9c1.6,1.6,1.7,2.1,1,3C223,338.8,222.1,338.5,222.4,336.6z M303.3,325
			c0.7-0.7,1-0.7,1.7,0c0.7,0.7,0.4,0.9-0.9,0.9C303,325.8,302.6,325.8,303.3,325z M307.6,325.2c0-0.4,0.4-0.7,1-0.4
			c0.5,0.3,1.2-0.1,1.3-0.7c0.2-0.7,0.9-0.9,1.2-0.4c0.4,0.2,1.6,0.4,2.3,0.3c0.9-0.1,1.7,0.1,1.9,0.6c0.2,0.5-0.1,0.9-0.9,0.9
			c-0.7,0-2.6,0.2-4.1,0.4C308.6,326,307.6,325.6,307.6,325.2z M317.1,325c0.7-0.7,1-0.7,1.7,0c0.7,0.7,0.4,0.9-0.9,0.9
			C316.8,325.8,316.4,325.8,317.1,325z M301.2,321.3c-1-0.6-2.3-0.9-2.7-0.6c-0.4,0.2-0.7,0.2-0.2-0.3c0.3-0.4-0.1-0.9-1-0.9
			c-0.9,0-1.3,0.2-1.1,0.6c0.2,0.2-0.2,0.6-1,0.6c-1.9,0-1.7-1,0.3-1.9c1.3-0.7,2.4-0.4,5.9,0.9c4,1.6,5.3,2.7,3,2.7
			C303.7,322.5,302.3,321.9,301.2,321.3z M362.7,312.1c0-0.4,0.3-0.9,0.7-0.9c0.4,0,0.7,0.1,0.7,0.2s-0.3,0.4-0.7,0.9
			C363,312.8,362.7,312.6,362.7,312.1z M364,299.4c0-0.1,0.3-0.4,0.7-0.9c0.3-0.3,0.7-0.1,0.7,0.2c0,0.4-0.3,0.9-0.7,0.9
			C364.4,299.7,364,299.5,364,299.4z M227.7,296.1c0-0.6,0.2-1.2,0.7-1.4c0.4-0.2,0.7,0.1,0.7,0.7c0,0.6-0.2,1.2-0.7,1.4
			C227.9,296.9,227.7,296.7,227.7,296.1z M230.5,296c0-0.1,0.2-0.4,0.7-0.9c0.4-0.2,0.7-0.1,0.7,0.2c0,0.4-0.2,0.9-0.7,0.9
			C230.8,296.3,230.5,296.1,230.5,296z M234.7,292.1c0-0.4,0.2-0.9,0.7-0.9c0.5,0,0.7,0.1,0.7,0.2s-0.2,0.4-0.7,0.9
			C234.9,292.8,234.7,292.7,234.7,292.1z M235.6,285.9c-0.2-0.3-0.9-0.4-1.2-0.2c-0.4,0.2-0.4,0,0.1-0.7c1-1.2,3.2-1.6,3.8-0.7
			c0.2,0.2-0.2,0.9-1,1.3C236.5,286.3,235.9,286.3,235.6,285.9z M326.6,276.2c-0.7-0.4-1.8-0.6-2.3-0.3c-0.6,0.2-0.9,0.1-0.7-0.2
			c0.2-0.3,0.1-0.7-0.4-0.7c-1.6,0,0-0.9,1.9-1.1c2.1-0.2,6,1.6,5.3,2.6C330.2,277.1,328.4,277.1,326.6,276.2z"/>
	</g>
</g>
</svg>
