<?xml version="1.0" encoding="utf-8"?>
<!-- Generator: Adobe Illustrator 17.1.0, SVG Export Plug-In . SVG Version: 6.00 Build 0)  -->
<!DOCTYPE svg PUBLIC "-//W3C//DTD SVG 1.1//EN" "http://www.w3.org/Graphics/SVG/1.1/DTD/svg11.dtd">
<svg version="1.1" id="Layer_1" xmlns="http://www.w3.org/2000/svg" xmlns:xlink="http://www.w3.org/1999/xlink" x="0px" y="0px"
	 viewBox="0 0 56.7 56.7" enable-background="new 0 0 56.7 56.7" xml:space="preserve">
<g>
	<polygon fill="#FFFFFF" points="38.5,24.4 38.5,20.4 38.5,19.9 37.9,19.9 34,19.9 34,24.4 	"/>
	<path fill="#FFFFFF" d="M28.2,34.9c2.6,0,4.7-2.1,4.7-4.7c0-1-0.3-2-0.9-2.7c-0.9-1.2-2.2-2-3.8-2s-3,0.8-3.8,2
		c-0.6,0.8-0.9,1.7-0.9,2.7C23.5,32.8,25.6,34.9,28.2,34.9z"/>
	<path fill="#FFFFFF" d="M28.3,5.2c-13.6,0-24.6,11-24.6,24.6s11,24.6,24.6,24.6c13.6,0,24.6-11,24.6-24.6S41.9,5.2,28.3,5.2z
		 M41.6,27.4v11c0,2.9-2.3,5.2-5.2,5.2H20c-2.9,0-5.2-2.3-5.2-5.2v-11v-5.5c0-2.9,2.3-5.2,5.2-5.2h16.4c2.9,0,5.2,2.3,5.2,5.2
		C41.6,21.9,41.6,27.4,41.6,27.4z"/>
	<path fill="#FFFFFF" d="M35.5,30.2c0,4-3.3,7.3-7.3,7.3s-7.3-3.3-7.3-7.3c0-1,0.2-1.9,0.5-2.7h-4v11c0,1.4,1.1,2.6,2.6,2.6h16.4
		c1.4,0,2.6-1.2,2.6-2.6v-11h-4C35.3,28.3,35.5,29.2,35.5,30.2z"/>
</g>
</svg>
